<svg width="4203" height="614" viewBox="0 0 4203 614" fill="none" xmlns="http://www.w3.org/2000/svg">
<g clip-path="url(#clip0_37_2)">
<path d="M94.9146 515L242.404 99.5752H335.526L483.295 515H402.162L329.114 297.25C321.865 274.388 314.244 249.76 306.251 223.366C298.445 196.972 289.43 166.025 279.207 130.523H298.724C288.687 166.025 279.672 196.972 271.679 223.366C263.687 249.76 255.973 274.388 248.538 297.25L174.654 515H94.9146ZM182.182 414.908V354.406H396.307V414.908H182.182ZM599.558 99.5752V515H525.395V99.5752H599.558ZM984.593 521.413C946.303 521.413 912.567 512.491 883.385 494.647C854.203 476.803 831.341 451.896 814.798 419.926C798.442 387.77 790.263 350.317 790.263 307.566C790.263 263.886 798.627 225.968 815.356 193.812C832.084 161.657 855.04 136.843 884.222 119.371C913.404 101.899 946.489 93.1626 983.478 93.1626C1006.71 93.1626 1028.46 96.6012 1048.72 103.479C1068.98 110.356 1087.01 120.207 1102.81 133.032C1118.61 145.672 1131.62 160.727 1141.84 178.199C1152.25 195.485 1158.94 214.816 1161.92 236.191H1086.64C1083.85 224.481 1079.48 213.98 1073.53 204.686C1067.58 195.207 1060.24 187.121 1051.51 180.43C1042.77 173.552 1032.83 168.348 1021.67 164.816C1010.52 161.285 998.347 159.519 985.15 159.519C960.801 159.519 939.612 165.56 921.582 177.642C903.552 189.537 889.519 206.545 879.482 228.664C869.631 250.782 864.705 277.083 864.705 307.566C864.705 337.678 869.631 363.793 879.482 385.912C889.519 408.03 903.645 425.131 921.861 437.212C940.076 449.108 961.452 455.056 985.987 455.056C1006.8 455.056 1025.21 450.967 1041.19 442.789C1057.18 434.424 1069.63 422.714 1078.55 407.659C1087.66 392.603 1092.21 375.131 1092.21 355.243L1110.89 356.916H995.745V298.366H1164.7V348.551C1164.7 382.752 1156.9 412.863 1141.28 438.885C1125.86 464.722 1104.57 484.982 1077.44 499.666C1050.48 514.164 1019.54 521.413 984.593 521.413ZM1225.2 515V99.5752H1509.87V163.144H1299.37V273.273H1494.25V335.726H1299.37V451.432H1510.15V515H1225.2ZM1568.14 515V99.5752H1648.71L1794.25 330.708C1798.71 337.585 1804.01 346.507 1810.15 357.473C1816.46 368.254 1823.06 379.964 1829.94 392.603C1836.82 405.242 1843.51 417.975 1850.01 430.8L1841.93 444.74C1841.19 432.287 1840.44 418.253 1839.7 402.64C1839.14 387.027 1838.68 372.157 1838.3 358.031C1838.12 343.719 1838.03 332.38 1838.03 324.016V99.5752H1912.19V515H1831.33L1700.29 307.009C1694.9 298.273 1688.49 287.678 1681.06 275.225C1673.62 262.771 1665.35 248.459 1656.24 232.288C1647.13 216.117 1637.28 198.366 1626.69 179.036L1638.12 170.671C1639.24 191.303 1640.07 210.541 1640.63 228.385C1641.37 246.043 1641.84 261.563 1642.02 274.946C1642.4 288.329 1642.58 298.923 1642.58 306.73V515H1568.14ZM1984.68 515V99.5752H2269.34V163.144H2058.84V273.273H2253.73V335.726H2058.84V451.432H2269.62V515H1984.68ZM2327.61 515V99.5752H2488.49C2519.16 99.5752 2545.55 105.058 2567.67 116.025C2589.79 126.806 2606.7 142.14 2618.41 162.028C2630.31 181.917 2636.25 205.337 2636.25 232.288C2636.25 259.24 2630.03 282.567 2617.57 302.269C2605.31 321.786 2587.84 336.934 2565.16 347.715C2542.48 358.31 2515.62 363.607 2484.58 363.607H2371.11V302.548H2482.91C2500.01 302.548 2514.51 299.76 2526.4 294.184C2538.3 288.422 2547.31 280.336 2553.45 269.927C2559.77 259.333 2562.93 246.786 2562.93 232.288C2562.93 217.79 2559.77 205.337 2553.45 194.928C2547.13 184.519 2538.02 176.433 2526.13 170.671C2514.23 164.909 2499.73 162.028 2482.63 162.028H2401.78V515H2327.61ZM2564.32 515L2466.74 327.362H2546.2L2645.73 515H2564.32ZM2666.65 515L2814.13 99.5752H2907.26L3055.03 515H2973.89L2900.84 297.25C2893.6 274.388 2885.97 249.76 2877.98 223.366C2870.18 196.972 2861.16 166.025 2850.94 130.523H2870.45C2860.42 166.025 2851.4 196.972 2843.41 223.366C2835.42 249.76 2827.7 274.388 2820.27 297.25L2746.38 515H2666.65ZM2753.91 414.908V354.406H2968.04V414.908H2753.91ZM3022.4 163.144V99.5752H3354.19V163.144H3225.38V515H3151.21V163.144H3022.4ZM3405.49 515V99.5752H3690.15V163.144H3479.65V273.273H3674.54V335.726H3479.65V451.432H3690.43V515H3405.49ZM3888.94 515H3784.11V451.71H3885.04C3914.78 451.71 3939.41 446.134 3958.92 434.982C3978.63 423.644 3993.31 407.194 4002.97 385.633C4012.64 364.072 4017.47 337.771 4017.47 306.73C4017.47 276.061 4012.64 250.039 4002.97 228.664C3993.5 207.102 3979.09 190.746 3959.76 179.593C3940.43 168.441 3916.27 162.865 3887.27 162.865H3782.16V99.5752H3892.01C3933.27 99.5752 3968.77 107.939 3998.51 124.668C4028.44 141.396 4051.39 165.281 4067.38 196.322C4083.55 227.177 4091.64 263.979 4091.64 306.73C4091.64 349.667 4083.55 386.748 4067.38 417.975C4051.21 449.015 4028.07 472.993 3997.96 489.907C3967.84 506.636 3931.51 515 3888.94 515ZM3822.59 99.5752V515H3748.42V99.5752H3822.59Z" fill="#141414"/>
</g>
<defs>
<clipPath id="clip0_37_2">
<rect width="4203" height="614" fill="white"/>
</clipPath>
</defs>
</svg>
